{"title":"Chef Academy S01E02 pdtv xvid-Omicron avi [Dodecahedron]","uid":5179432,"size":366151680,"categoryP":"video","categoryS":"tv_shows","magnet":"?xt=urn:btih:a3c5338c7824db03e1db794907c50f353763063d&amp;dn=Chef+Academy+S01E02+pdtv+xvid-Omicron+avi+%5BDodecahedron%5D&amp;tr=udp%3A%2F%2Ftracker.openbittorrent.com%3A80&amp;tr=udp%3A%2F%2Fopen.demonii.com%3A1337&amp;tr=udp%3A%2F%2Ftracker.coppersurfer.tk%3A6969&amp;tr=udp%3A%2F%2Fexodus.desync.com%3A6969","seeders":1,"leechers":1,"uploader":"Dodecahedron9","files":-1,"time":1259160451,"description":"Chef Academy S01E02 PDTV Xvid-Omicron avi [Dodecahedron]\n\nChef Academy chronicles award-winning chef Jean-Christophe Novelli's move to Los Angeles as he opens a cooking school and trains and transforms those who aspire to cook like professionals. Voted &quot;World's Sexiest Chef&quot; by The New York Times, Novelli is a Michelin and 5AA Rosette award-winning chef with restaurants in London, France and South Africa. His Novelli Academy Cookery School in the UK has placed in the &quot;Top 25 Cookery Schools in the World&quot;. The docu-series will follow Novelli as he moves to the United States and sets up the school, and will chronicle as his students are tested and measured based on what they have learned.\n\n---\n\nGeneral\n\nFormat : AVI\nFormat/Info : Audio Video Interleave\nFile size : 349 MiB\nDuration : 44mn 4s\nOverall bit rate : 1 108 Kbps\nWriting application : VirtualDubMod 1.5.10.2 (build 2540/release)\nWriting library : VirtualDubMod build 2540/release\n\nVideo\n\nFormat : MPEG-4 Visual\nFormat profile : Streaming Video@L1\nFormat settings, BVOP : Yes\nFormat settings, QPel : No\nFormat settings, GMC : No warppoints\nFormat settings, Matrix : Default\nMuxing mode : Packed bitstream\nCodec ID : XVID\nCodec ID/Hint : XviD\nDuration : 44mn 4s\nBit rate : 973 Kbps\nWidth : 512 pixels\nHeight : 384 pixels\nDisplay aspect ratio : 4/3\nFrame rate : 29.970 fps\nResolution : 24 bits\nColorimetry : 4:2:0\nScan type : Progressive\nBits/(Pixel*Frame) : 0.165\nStream size : 307 MiB (88%)\nWriting library : XviD 50\n\nAudio\n\nFormat : MPEG Audio\nFormat version : Version 1\nFormat profile : Layer 3\nCodec ID : 55\nCodec ID/Hint : MP3\nDuration : 44mn 4s\nBit rate mode : Variable\nBit rate : 121 Kbps\nMinimum bit rate : 32.0 Kbps\nChannel(s) : 2 channels\nSampling rate : 48.0 KHz\nResolution : 16 bits\nStream size : 38.1 MiB (11%)\nAlignment : Aligned on interleaves\nInterleave, duration : 24 ms (0.72 video frame)\nInterleave, preload duration : 552 ms\nWriting library : LAME3.98 \nEncoding settings : VBR (mtrh)\n\n--\nBrought to you by Dodecahedron. Enjoy and seed :)","torrent":{"xt":"urn:btih:a3c5338c7824db03e1db794907c50f353763063d","amp;dn":"Chef+Academy+S01E02+pdtv+xvid-Omicron+avi+%5BDodecahedron%5D","amp;tr":["udp%3A%2F%2Ftracker.openbittorrent.com%3A80","udp%3A%2F%2Fopen.demonii.com%3A1337","udp%3A%2F%2Ftracker.coppersurfer.tk%3A6969","udp%3A%2F%2Fexodus.desync.com%3A6969"],"infoHash":"a3c5338c7824db03e1db794907c50f353763063d","infoHashBuffer":{"type":"Buffer","data":[163,197,51,140,120,36,219,3,225,219,121,73,7,197,15,53,55,99,6,61]},"announce":[],"urlList":[]}}